<?xml version="1.0" encoding="utf-8"?>
<!-- Generator: Adobe Illustrator 18.0.0, SVG Export Plug-In . SVG Version: 6.00 Build 0)  -->
<!DOCTYPE svg PUBLIC "-//W3C//DTD SVG 1.1//EN" "http://www.w3.org/Graphics/SVG/1.1/DTD/svg11.dtd">
<svg version="1.1" id="图层_1" xmlns="http://www.w3.org/2000/svg" xmlns:xlink="http://www.w3.org/1999/xlink" x="0px" y="0px"
	 viewBox="0 0 180 180" enable-background="new 0 0 180 180" xml:space="preserve">
<g>
	<path fill-rule="evenodd" clip-rule="evenodd" fill="#003956" d="M87.3,94c1.9-0.2,3.4,0.2,5.3,0.6v6.1c-1.3,0.1-4,0.5-6.1,0.1
		C82.8,100,82.8,94.6,87.3,94L87.3,94z M81.5,86.5l1.7,1.9c2.7-2.4,8.7-3.5,9.3,1.6c0.1,0.6,0.1,1.3,0.1,2.1
		c-1.5-0.4-2.4-0.8-4.4-0.8c-7.1,0-9,6-6.5,9.7c1.9,2.8,5.2,2.8,8.2,2.7c2.9-0.1,5.7-0.8,5.7-1.8v-13C95.7,83,85.3,81.5,81.5,86.5z"
		/>
	<path fill-rule="evenodd" clip-rule="evenodd" fill="#003956" d="M28.6,90.7h-1.8V76.8h-4.4l-13,14.7v3.1h12.8v8.6h4.6v-8.6h1.8
		V90.7L28.6,90.7z M16.1,90.7l6.2-6.8v6.8H16.1z"/>
	<path fill-rule="evenodd" clip-rule="evenodd" fill="#003956" d="M30.4,103.2h4.4v-8.7h7.5c10.3,0,10.8-17.7-0.5-17.7H30.4v13.8
		h-1.8v4h1.8V103.2L30.4,103.2z M42.3,90.7l-7.9,0l0.1-10l6.7,0C47.4,80.7,46.8,90.7,42.3,90.7z"/>
	<rect x="22.2" y="106" fill-rule="evenodd" clip-rule="evenodd" fill="#3B82C5" width="4.6" height="7.5"/>
	<path fill-rule="evenodd" clip-rule="evenodd" fill="#003956" d="M145.3,85.7v17.5h3.3V87.6c0-1.8,7.5-1.6,7.5,1.1v14.4h3.3V89
		c0-3.3,7.8-3.6,7.8,0.3v13.9h3.3v-13c0-5.3-3.7-6.7-8-6.7c-2,0-3.5,1.1-4.7,1.9c-3.5-2.3-8.3-2.8-11.9-0.6
		C145.5,85,145.3,85.3,145.3,85.7z"/>
	<path fill-rule="evenodd" clip-rule="evenodd" fill="#003956" d="M129.2,97.6c0-8.5-1.7-12.9,8.3-10.5v13
		C135.2,100.7,129.2,101.8,129.2,97.6L129.2,97.6z M137.2,102.9l0.6-0.3c0,1.6-0.1,5.4-1.6,6.4c-2.2,1.3-5.6,0.3-7.8-1.2l-1.7,1.9
		c2.8,4,13.7,4.5,14.2-3c0.3-3.9,0-14.2,0-19c0-2.1,0.1-2.6-0.8-3c-1.3-0.6-3.9-1-5.3-1.1c-3.5-0.3-6.9,0.6-8.4,4.1
		c-0.7,1.5-0.5,3.3-0.5,5.4c0,4.4-0.3,7.1,2.3,9.1C130.4,103.6,134.3,104.4,137.2,102.9z"/>
	<path fill-rule="evenodd" clip-rule="evenodd" fill="#003956" d="M102.6,97.4c0-7.3-1.1-10.1,3.5-10.9c1-0.2,5.1,0.1,5.1,1.5v12.5
		C109.7,100.4,102.6,102,102.6,97.4L102.6,97.4z M111.2,84.6c-5.2-2.8-11.9-0.3-11.9,5.5v6.9c0,2.4,1.3,4.4,3.2,5.5
		c3,1.8,7.7,1.2,10.8,0.1c0.7-0.2,1.3-0.6,1.3-1.2V77.1h-3.3V84.6z"/>
	<path fill-rule="evenodd" clip-rule="evenodd" fill="#003956" d="M57.6,94c1.9-0.2,3.4,0.2,5.3,0.6v6.1c-1.3,0.1-4,0.5-6.1,0.1
		C53.1,100,53.1,94.6,57.6,94L57.6,94z M51.8,86.5l1.7,1.9c2.7-2.4,8.7-3.5,9.3,1.6c0.1,0.6,0.1,1.3,0.1,2.1
		c-1.5-0.4-2.4-0.8-4.4-0.8c-8.6,0-9.6,8.9-4.2,11.7c2.6,1.3,11.7,0.8,11.7-1.1v-13C66,83,55.6,81.5,51.8,86.5z"/>
	<path fill-rule="evenodd" clip-rule="evenodd" fill="#003956" d="M70.1,89.3v13.9h3.1V90.4c0-4,3.4-3.9,6.1-3.9
		c0-3.4,0.4-3.1-2.2-3.1C73.6,83.5,70.1,85.9,70.1,89.3z"/>
	<rect x="118.7" y="83.8" fill-rule="evenodd" clip-rule="evenodd" fill="#003956" width="3.3" height="19.4"/>
	<rect x="30.2" y="106" fill-rule="evenodd" clip-rule="evenodd" fill="#00AEB0" width="4.6" height="12.7"/>
	<rect x="30.2" y="66.5" fill-rule="evenodd" clip-rule="evenodd" fill="#3B82C5" width="4.6" height="7.5"/>
	<rect x="22.2" y="61.3" fill-rule="evenodd" clip-rule="evenodd" fill="#00AEB0" width="4.6" height="12.7"/>
	<rect x="118.7" y="77.1" fill-rule="evenodd" clip-rule="evenodd" fill="#00AEB0" width="3.3" height="5"/>
	<path fill-rule="evenodd" clip-rule="evenodd" fill="#003956" d="M52,111.3v-0.8h11.6v2.5h-4.5v1h4.6v4.7h-2.1v-3.8h-2.5v3.8h-2.3
		v-3.8h-4.7v-2.8h4.7v-0.8H52L52,111.3z M59.3,107.8h2.2l-0.2,0.2H64v0.8h-0.9L64,110h-2.2l-0.8-1.2h-0.1l-0.9,1.2h-2.2L59.3,107.8
		L59.3,107.8z M53.1,107.8l-1.4,2.2h2.2l0.8-1.2h0.1l0.8,1.2h2.2l-0.9-1.2h0.9v-0.8h-2.6l0.1-0.2H53.1L53.1,107.8z M54.2,118.7
		l1.4-3.3h-2.3l-1.4,3.3H54.2L54.2,118.7z M56.8,114v-1h-2.6v1H56.8L56.8,114z M59.2,111.3v0.8h2.4v-0.8H59.2L59.2,111.3z
		 M80.7,118.7H68.9v-10.8h11.8V118.7L80.7,118.7z M78.6,117.8v-9.1h-1.1v6.2h-2.1v-6.2h-1l0,6.2h-2.1l0-6.2H71v9.1H78.6L78.6,117.8z
		 M92.3,117.8h5.5v0.9h-7.8v-8h7.3v4.2h-3.9V114h1.6v-2.5h-2.8V117.8L92.3,117.8z M96,110h-2.3v-0.6h-4.1v0.6h-2.4v-0.6h-1.8v-0.8
		h1.8v-0.6h2.4v0.6h4.1v-0.6H96v0.6h1.9v0.8H96V110L96,110z M88,118.7h-2.5l1.4-3.6h2.5L88,118.7L88,118.7z M86.9,115.1h2.5
		l-1.4-2.3h-2.5L86.9,115.1L86.9,115.1z M88,110.6l1.4,1.8h-2.5l-1.4-1.8H88L88,110.6z M102.6,109.7v-0.8h6.6l-0.3-0.9h2.5l0.3,0.9
		h0.5l-0.3-0.9h2.5l0.3,0.9l0.3,0.8h-2.5H112l3,9h-2.5l-3-9H102.6L102.6,109.7z M102.7,117.7v0.9l7.1,0v-0.9h-2.3v-6.2h2v-0.8h-6.5
		v0.8h2.1v6.2H102.7z"/>
</g>
</svg>
